<?xml version="1.0" encoding="iso-8859-1"?>
<!-- Generator: Adobe Illustrator 19.0.0, SVG Export Plug-In . SVG Version: 6.00 Build 0)  -->
<svg version="1.1" id="Capa_1" xmlns="http://www.w3.org/2000/svg" xmlns:xlink="http://www.w3.org/1999/xlink" x="0px" y="0px"
	 viewBox="0 0 512 512" style="enable-background:new 0 0 512 512;" xml:space="preserve">
<path style="fill:#ECEFF1;" d="M320,0H96C78.368,0,64,14.368,64,32v448c0,17.664,14.368,32,32,32h320c17.664,0,32-14.336,32-32V128
	L320,0z"/>
<path style="fill:#CFD8DC;" d="M320,0v96c0,17.664,14.336,32,32,32h96L320,0z"/>
<g>
	<path style="fill:#90A4AE;" d="M368,256h-64c-8.832,0-16-7.168-16-16s7.168-16,16-16h64c8.832,0,16,7.136,16,16
		S376.832,256,368,256z"/>
	<path style="fill:#90A4AE;" d="M368,320h-64c-8.832,0-16-7.168-16-16s7.168-16,16-16h64c8.832,0,16,7.168,16,16
		S376.832,320,368,320z"/>
	<path style="fill:#90A4AE;" d="M368,384H144c-8.832,0-16-7.168-16-16s7.168-16,16-16h224c8.832,0,16,7.168,16,16
		S376.832,384,368,384z"/>
	<path style="fill:#90A4AE;" d="M368,448H144c-8.832,0-16-7.168-16-16s7.168-16,16-16h224c8.832,0,16,7.168,16,16
		S376.832,448,368,448z"/>
</g>
<path style="fill:#2196F3;" d="M256,232c0-30.88-28.704-56-64-56c-17.344,0-32-10.976-32-24s14.656-24,32-24
	c8.704,0,16.832,2.688,22.88,7.616c6.816,5.536,16.896,4.576,22.496-2.304c5.6-6.848,4.576-16.928-2.304-22.496
	c-7.712-6.304-17.056-10.528-27.072-12.8V80c0-8.832-7.168-16-16-16s-16,7.168-16,16v17.984c-27.52,6.272-48,28-48,54.016
	c0,30.88,28.704,56,64,56c17.344,0,32,10.976,32,24s-14.656,24-32,24c-8.704,0-16.832-2.688-22.88-7.616
	c-6.848-5.568-16.896-4.576-22.496,2.304c-5.6,6.848-4.576,16.928,2.304,22.528c7.712,6.272,17.056,10.496,27.072,12.768V304
	c0,8.832,7.168,16,16,16s16-7.168,16-16v-17.984C235.52,279.744,256,258.016,256,232z"/>
<g>
</g>
<g>
</g>
<g>
</g>
<g>
</g>
<g>
</g>
<g>
</g>
<g>
</g>
<g>
</g>
<g>
</g>
<g>
</g>
<g>
</g>
<g>
</g>
<g>
</g>
<g>
</g>
<g>
</g>
</svg>
