<?xml version="1.0" encoding="UTF-8"?>
<!DOCTYPE svg PUBLIC "-//W3C//DTD SVG 1.1//EN" "http://www.w3.org/Graphics/SVG/1.1/DTD/svg11.dtd">
<!-- Creator: CorelDRAW X7 -->
<svg xmlns="http://www.w3.org/2000/svg" xml:space="preserve" width="131.233mm" height="131.233mm" version="1.1" style="shape-rendering:geometricPrecision; text-rendering:geometricPrecision; image-rendering:optimizeQuality; fill-rule:evenodd; clip-rule:evenodd"
viewBox="0 0 5051 5051"
 xmlns:xlink="http://www.w3.org/1999/xlink"
 enable-background="new 0 0 64 64">
 <defs>
  <style type="text/css">
   <![CDATA[
    .fil0 {fill:#8BC34A}
   ]]>
  </style>
 </defs>
 <g id="Layer_x0020_1">
  <metadata id="CorelCorpID_0Corel-Layer"/>
  <g id="_2441219633536">
   <g>
    <polygon class="fil0" points="2933,652 3096,652 3096,815 2933,815 " data-original="#000000" data-old_color="#000000"/>
    <polygon class="fil0" points="2607,652 2770,652 2770,815 2607,815 " data-original="#000000" data-old_color="#000000"/>
    <polygon class="fil0" points="1955,1304 2118,1304 2118,1466 1955,1466 " data-original="#000000" data-old_color="#000000"/>
    <polygon class="fil0" points="2281,1304 2444,1304 2444,1466 2281,1466 " data-original="#000000" data-old_color="#000000"/>
    <polygon class="fil0" points="2933,1955 3096,1955 3096,2118 2933,2118 " data-original="#000000" data-old_color="#000000"/>
    <polygon class="fil0" points="2607,1955 2770,1955 2770,2118 2607,2118 " data-original="#000000" data-old_color="#000000"/>
    <polygon class="fil0" points="1955,2607 2118,2607 2118,2770 1955,2770 " data-original="#000000" data-old_color="#000000"/>
    <polygon class="fil0" points="2281,2607 2444,2607 2444,2770 2281,2770 " data-original="#000000" data-old_color="#000000"/>
    <polygon class="fil0" points="652,1304 815,1304 815,1466 652,1466 " data-original="#000000" data-old_color="#000000"/>
    <polygon class="fil0" points="978,1304 1141,1304 1141,1466 978,1466 " data-original="#000000" data-old_color="#000000"/>
    <polygon class="fil0" points="652,2607 815,2607 815,2770 652,2770 " data-original="#000000" data-old_color="#000000"/>
    <polygon class="fil0" points="978,2607 1141,2607 1141,2770 978,2770 " data-original="#000000" data-old_color="#000000"/>
    <path class="fil0" d="M4644 652l-896 0 0 -245c0,-224 -183,-407 -408,-407l-1629 0c-225,0 -407,183 -407,407l0 245 -897 0c-224,0 -407,182 -407,407l0 2281c0,225 183,408 407,408l668 0c0,1 0,2 0,3 -329,33 -586,311 -586,648 0,360 292,652 652,652l2770 0c359,0 651,-292 651,-652 0,-331 -249,-606 -570,-646 0,-2 0,-4 0,-5l652 0c224,0 407,-183 407,-408l0 -2281c0,-225 -183,-407 -407,-407zm-82 1629l-814 0 0 -489 814 0 0 489zm0 163l0 489 -814 0 0 -489 814 0zm0 -815l-814 0 0 -488 814 0 0 488zm-2851 -1466l1629 0c135,0 245,110 245,244l0 2548c-51,-37 -106,-68 -163,-95l0 -2371c0,-90 -73,-163 -163,-163l-1467 0c-90,0 -163,73 -163,163l0 2645c-57,18 -111,42 -163,71l0 -2798c0,-134 110,-244 245,-244l0 0zm512 3013c-109,-52 -228,-80 -349,-80 -28,0 -55,1 -82,4l0 -656 1467 0 0 358c-79,-20 -160,-32 -245,-32 -325,0 -613,161 -791,406zm1036 -2198l-1467 0 0 -489 1467 0 0 489zm-1467 163l1467 0 0 488 -1467 0 0 -488zm0 651l1467 0 0 489 -1467 0 0 -489zm-488 -163l-815 0 0 -488 815 0 0 488zm-815 163l815 0 0 489 -815 0 0 -489zm0 652l815 0 0 489 -815 0 0 -489zm-326 896l0 -2281c0,-135 110,-244 244,-244l897 0 0 163 -815 0c-90,0 -163,73 -163,163l0 2429c-95,-34 -163,-124 -163,-230l0 0zm326 245l0 -489 815 0 0 233c-74,73 -135,159 -177,256l-638 0zm3910 814c0,270 -219,489 -488,489l-2770 0c-270,0 -489,-219 -489,-489 0,-269 219,-488 489,-488 269,0 488,219 488,488l163 0c0,-325 -239,-594 -551,-643 70,-288 328,-497 633,-497 92,0 182,20 265,57 -65,130 -102,276 -102,432l163 0c0,-450 365,-815 814,-815 450,0 815,365 815,815 0,1 0,3 0,5 -321,41 -570,315 -570,646l163 0c0,-269 219,-488 489,-488 269,0 488,219 488,488zm-422 -814c-31,-183 -112,-348 -229,-482l0 -7 814 0 0 489 -585 0zm911 -245c0,106 -68,196 -163,230l0 -2429c0,-90 -73,-163 -163,-163l-814 0 0 -163 896 0c135,0 244,109 244,244l0 2281z" data-original="#000000" data-old_color="#000000"/>
    <polygon class="fil0" points="4236,1304 4399,1304 4399,1466 4236,1466 " data-original="#000000" data-old_color="#000000"/>
    <polygon class="fil0" points="3911,1304 4073,1304 4073,1466 3911,1466 " data-original="#000000" data-old_color="#000000"/>
    <polygon class="fil0" points="4236,2607 4399,2607 4399,2770 4236,2770 " data-original="#000000" data-old_color="#000000"/>
    <polygon class="fil0" points="3911,2607 4073,2607 4073,2770 3911,2770 " data-original="#000000" data-old_color="#000000"/>
    <path class="fil0" d="M3498 3678l161 -23c-45,-319 -322,-559 -645,-559 -63,0 -126,9 -186,27l47 156c45,-13 92,-20 139,-20 242,0 450,180 484,419z" data-original="#000000" data-old_color="#000000"/>
    <polygon class="fil0" points="1141,4562 1304,4562 1304,4725 1141,4725 " data-original="#000000" data-old_color="#000000"/>
    <polygon class="fil0" points="1466,4562 1629,4562 1629,4725 1466,4725 " data-original="#000000" data-old_color="#000000"/>
    <polygon class="fil0" points="1792,4562 1955,4562 1955,4725 1792,4725 " data-original="#000000" data-old_color="#000000"/>
   </g>
  </g>
 </g>
</svg>
