<?xml version="1.0" encoding="UTF-8"?>
<!DOCTYPE svg PUBLIC "-//W3C//DTD SVG 1.1//EN" "http://www.w3.org/Graphics/SVG/1.1/DTD/svg11.dtd">
<!-- Creator: CorelDRAW X7 -->
<svg xmlns="http://www.w3.org/2000/svg" xml:space="preserve" width="131.233mm" height="131.236mm" version="1.1" style="shape-rendering:geometricPrecision; text-rendering:geometricPrecision; image-rendering:optimizeQuality; fill-rule:evenodd; clip-rule:evenodd"
viewBox="0 0 3684 3684"
 xmlns:xlink="http://www.w3.org/1999/xlink"
 enable-background="new 0 0 64 64">
 <defs>
  <style type="text/css">
   <![CDATA[
    .fil0 {fill:#8BC34A}
   ]]>
  </style>
 </defs>
 <g id="Layer_x0020_1">
  <metadata id="CorelCorpID_0Corel-Layer"/>
  <g id="_2441220443232">
   <g>
    <g>
     <circle class="fil0" cx="1664" cy="1069" r="59" data-original="#000000" data-old_color="#000000"/>
     <circle class="fil0" cx="2020" cy="1069" r="59" data-original="#000000" data-old_color="#000000"/>
     <path class="fil0" d="M1717 1221l-107 53 7 13c43,86 129,139 225,139 96,0 182,-53 225,-139l6 -13 -106 -53 -6 13c-23,45 -69,73 -119,73 -51,0 -96,-28 -119,-73l-6 -13z" data-original="#000000" data-old_color="#000000"/>
     <path class="fil0" d="M238 2792l356 0 0 -475 -356 0 0 475zm118 -356l119 0 0 238 -119 0 0 -238z" data-original="#000000" data-old_color="#000000"/>
     <polygon class="fil0" points="0,2317 119,2317 119,2792 0,2792 " data-original="#000000" data-old_color="#000000"/>
     <path class="fil0" d="M356 1723l-356 0 0 475 356 0 0 -475zm-118 356l-119 0 0 -237 119 0 0 237z" data-original="#000000" data-old_color="#000000"/>
     <polygon class="fil0" points="475,1723 594,1723 594,2198 475,2198 " data-original="#000000" data-old_color="#000000"/>
     <path class="fil0" d="M3684 1188c0,-524 -427,-950 -951,-950 -109,0 -215,19 -317,55 -129,-177 -338,-293 -574,-293 -287,0 -535,171 -648,416l-1075 0c-66,0 -119,53 -119,119l0 713c0,65 53,118 119,118l386 0 137 183c26,34 67,55 111,55 76,0 138,-62 138,-138l0 -100 240 0c6,113 31,222 74,322 -49,17 -94,40 -136,68l0 -33 -356 0 0 475 94 0 -83 413c-7,38 -11,76 -11,115 0,209 113,403 294,507l75 42 28 212c15,112 111,197 225,197l1014 0c113,0 210,-85 224,-197l29 -212 74 -42c182,-104 295,-298 295,-507 0,-39 -4,-77 -12,-115l-96 -482c465,-64 821,-464 821,-941l0 0zm-1124 535l355 0c-42,90 -89,160 -129,212 -55,-90 -133,-163 -226,-212zm354 -1069l-362 0c63,-136 137,-227 181,-274 44,47 118,138 181,274l0 0zm648 475l-415 0c-6,-134 -27,-253 -59,-357l364 0c62,107 101,228 110,357zm-534 0l-473 0 0 -357 407 0c35,101 60,220 66,357zm-518 475c29,-92 45,-189 45,-288l0 -68 473 0c-6,136 -31,255 -65,356l-453 0zm637 -356l415 0c-9,129 -48,250 -110,356l-364 0c31,-103 54,-222 59,-356zm222 -594l-324 0c-51,-123 -112,-217 -164,-284 195,36 366,138 488,284zm-783 -284c-23,30 -48,64 -73,105 -10,-27 -21,-53 -33,-79 35,-11 70,-20 106,-26zm-1338 343c0,-328 266,-594 594,-594 327,0 594,266 594,594l0 603c0,302 -162,578 -420,727 -6,-32 -22,-61 -44,-84 213,-136 345,-371 345,-629l0 -498c0,-262 -213,-476 -475,-476 -262,0 -476,214 -476,476l0 498c0,258 133,493 346,629 -22,23 -38,52 -45,84 -257,-149 -419,-425 -419,-727l0 -603zm950 141c-71,-62 -155,-106 -247,-130 -24,-75 -94,-130 -177,-130 -94,0 -170,76 -170,170l0 8 119 0 0 -8c0,-28 23,-51 51,-51 37,0 68,30 68,68 0,33 -25,61 -58,65l-299 37 0 -51c0,-197 160,-357 357,-357 196,0 356,160 356,357l0 22zm-713 149l314 -39c69,-9 125,-55 149,-117 101,32 188,96 250,182l0 159c0,197 -160,357 -356,357 -197,0 -357,-160 -357,-357l0 -185zm619 658l-14 -68c25,-16 49,-34 71,-53 -15,42 -34,83 -57,121zm-511 -68l-13 68c-24,-38 -42,-79 -57,-121 22,19 45,37 70,53zm111 50c44,13 90,21 138,21 48,0 94,-8 137,-21l27 137c-47,46 -102,86 -164,115 -62,-29 -117,-69 -165,-115l27 -137zm78 436c0,-29 23,-53 52,-57l8 3 8 -3c29,4 51,28 51,57l0 119c0,33 -26,60 -59,60 -33,0 -60,-27 -60,-60l0 -119zm-1010 -831l0 218c0,17 -25,25 -35,11l-173 -229 -445 0 0 -713 1033 0c-14,57 -23,116 -23,178l0 35 -136 -136 -84 84 195 195 -195 196 84 84 136 -136 0 213 -357 0zm60 594l119 0 0 20c-54,62 -94,136 -117,217l-2 0 0 -237zm405 772l1210 0c59,0 108,48 108,108 0,5 -1,9 -1,14l-79 591 -1266 0 -79 -591c-1,-5 -1,-9 -1,-14 0,-60 48,-108 108,-108zm1112 951l-1014 0c-54,0 -100,-40 -107,-94l-4 -25 1235 0 -3 25c-7,54 -53,94 -107,94l0 0zm273 -438l50 -375c1,-10 2,-20 2,-30 0,-108 -77,-199 -179,-221l0 -170 53 -106 -106 -53 -66 131 0 192 -1069 0 0 -192 -66 -131 -106 53 53 106 0 170c-101,22 -178,113 -178,221 0,10 1,20 2,30l50 375c-142,-84 -230,-237 -230,-401 0,-31 3,-62 9,-92l97 -486c34,-169 158,-302 320,-352 94,161 233,295 405,380l0 22c0,99 80,178 179,178 98,0 178,-79 178,-178l0 -22c172,-85 312,-219 405,-380 163,50 287,183 321,352l97 486c6,30 9,61 9,92 0,164 -88,317 -230,401l0 0zm258 -1121c52,-66 114,-160 165,-283l324 0c-123,145 -293,248 -489,283l0 0z" data-original="#000000" data-old_color="#000000"/>
     <polygon class="fil0" points="433,612 154,891 433,1171 517,1087 322,891 517,696 " data-original="#000000" data-old_color="#000000"/>
     <polygon class="fil0" points="596,1114 714,639 829,668 711,1143 " data-original="#000000" data-old_color="#000000"/>
    </g>
   </g>
  </g>
 </g>
</svg>
