<?xml version="1.0" encoding="UTF-8"?>
<!DOCTYPE svg PUBLIC "-//W3C//DTD SVG 1.1//EN" "http://www.w3.org/Graphics/SVG/1.1/DTD/svg11.dtd">
<!-- Creator: CorelDRAW X7 -->
<svg xmlns="http://www.w3.org/2000/svg" xml:space="preserve" width="107.41mm" height="135.467mm" version="1.1" style="shape-rendering:geometricPrecision; text-rendering:geometricPrecision; image-rendering:optimizeQuality; fill-rule:evenodd; clip-rule:evenodd"
viewBox="0 0 19223 24244"
 xmlns:xlink="http://www.w3.org/1999/xlink">
 <defs>
  <style type="text/css">
   <![CDATA[
    .fil0 {fill:#8BC34A}
   ]]>
  </style>
 </defs>
 <g id="Layer_x0020_1">
  <metadata id="CorelCorpID_0Corel-Layer"/>
  <g id="_2441220458304">
   <g>
    <g>
     <g>
      <path class="fil0" d="M19212 19993l-1083 -13643c-68,-879 -811,-1567 -1692,-1567l-2139 0 0 -97c0,-2584 -2102,-4686 -4686,-4686 -2584,0 -4687,2102 -4687,4686l0 97 -2138 0c-882,0 -1625,688 -1692,1565l-1084 13647c-83,1092 296,2180 1040,2984 745,804 1801,1265 2897,1265l11328 0c1095,0 2151,-461 2896,-1265 744,-804 1123,-1892 1040,-2986zm-12867 -15307c0,-1801 1466,-3266 3267,-3266 1801,0 3266,1465 3266,3266l0 97 -6533 0 0 -97zm10785 17328c-484,523 -1142,810 -1854,810l-11328 0c-712,0 -1371,-287 -1855,-810 -484,-522 -720,-1201 -666,-1909l1083 -13646c11,-144 133,-256 277,-256l2138 0 0 1749c0,392 318,710 710,710 392,0 710,-318 710,-710l0 -1749 6533 0 0 1749c0,392 318,710 710,710 392,0 710,-318 710,-710l0 -1749 2139 0c143,0 265,112 276,257l1083 13643c54,710 -182,1389 -666,1911z" data-original="#000000" data-old_color="#000000"/>
     </g>
    </g>
    <g>
     <g>
      <path class="fil0" d="M12810 12041c-277,-277 -726,-277 -1004,0l-3170 3170 -1219 -1219c-277,-277 -727,-277 -1004,0 -278,278 -278,727 0,1004l1721 1722c138,138 320,208 502,208 181,0 363,-70 502,-208l3672 -3673c278,-277 278,-727 0,-1004z" data-original="#000000" data-old_color="#000000"/>
     </g>
    </g>
   </g>
  </g>
 </g>
</svg>
