<?xml version="1.0" encoding="UTF-8"?>
<!DOCTYPE svg PUBLIC "-//W3C//DTD SVG 1.1//EN" "http://www.w3.org/Graphics/SVG/1.1/DTD/svg11.dtd">
<!-- Creator: CorelDRAW X7 -->
<svg xmlns="http://www.w3.org/2000/svg" xml:space="preserve" width="131.233mm" height="131.233mm" version="1.1" style="shape-rendering:geometricPrecision; text-rendering:geometricPrecision; image-rendering:optimizeQuality; fill-rule:evenodd; clip-rule:evenodd"
viewBox="0 0 9929 9929"
 xmlns:xlink="http://www.w3.org/1999/xlink"
 enable-background="new 0 0 64 64">
 <defs>
  <style type="text/css">
   <![CDATA[
    .fil0 {fill:#8BC34A}
   ]]>
  </style>
 </defs>
 <g id="Layer_x0020_1">
  <metadata id="CorelCorpID_0Corel-Layer"/>
  <g id="_2441215950544">
   <g>
    <g>
     <path class="fil0" d="M2242 5432c0,14 -24,16 -26,2l-110 -658c-28,-169 -173,-292 -344,-292 -172,0 -317,123 -345,292l-110 658c-2,14 -26,12 -26,-2l0 -1268 -320 0 0 1268c0,183 150,333 333,333 164,0 302,-117 329,-278l110 -658c5,-28 52,-28 57,0l110 658c27,161 165,278 329,278 184,0 333,-150 333,-333l0 -1268 -320 0 0 1268z" data-original="#000000" data-old_color="#000000"/>
     <path class="fil0" d="M4164 5432c0,14 -24,16 -26,2l-110 -658c-28,-169 -173,-292 -345,-292 -171,0 -316,123 -344,292l-110 658c-2,14 -26,12 -26,-2l0 -1268 -320 0 0 1268c0,183 149,333 333,333 164,0 302,-117 329,-278l110 -658c5,-28 52,-28 57,0l110 658c27,161 165,278 329,278 183,0 333,-150 333,-333l0 -1268 -320 0 0 1268z" data-original="#000000" data-old_color="#000000"/>
     <path class="fil0" d="M6085 5432c0,14 -23,16 -26,2l-110 -658c-28,-169 -173,-292 -344,-292 -171,0 -316,123 -344,292l-110 658c-3,14 -26,12 -26,-2l0 -1268 -321 0 0 1268c0,183 150,333 334,333 164,0 302,-117 329,-278l110 -658c4,-28 52,-28 57,0l109 658c27,161 166,278 329,278 184,0 334,-150 334,-333l0 -1268 -321 0 0 1268z" data-original="#000000" data-old_color="#000000"/>
     <polygon class="fil0" points="1281,641 1601,641 1601,961 1281,961 " data-original="#000000" data-old_color="#000000"/>
     <polygon class="fil0" points="1922,641 2242,641 2242,961 1922,961 " data-original="#000000" data-old_color="#000000"/>
     <polygon class="fil0" points="641,641 961,641 961,961 641,961 " data-original="#000000" data-old_color="#000000"/>
     <path class="fil0" d="M3843 1922l-3202 0 0 1921 3202 0 0 -1921zm-320 1601l-2562 0 0 -1281 2562 0 0 1281z" data-original="#000000" data-old_color="#000000"/>
     <polygon class="fil0" points="4164,1922 4484,1922 4484,2242 4164,2242 " data-original="#000000" data-old_color="#000000"/>
     <polygon class="fil0" points="4804,1922 6726,1922 6726,2242 4804,2242 " data-original="#000000" data-old_color="#000000"/>
     <polygon class="fil0" points="4164,2562 6726,2562 6726,2883 4164,2883 " data-original="#000000" data-old_color="#000000"/>
     <polygon class="fil0" points="4164,3203 6726,3203 6726,3523 4164,3523 " data-original="#000000" data-old_color="#000000"/>
     <path class="fil0" d="M7367 2193l0 -1713c0,-264 -216,-480 -481,-480l-6406 0c-264,0 -480,216 -480,480l0 5766c0,265 216,480 480,480l1527 0c377,1863 2002,3203 3918,3203 2208,0 4004,-1796 4004,-4004 0,-1655 -1026,-3138 -2562,-3732l0 0zm-1442 7416c-584,0 -1122,-633 -1445,-1602l2888 0c-322,960 -854,1602 -1443,1602l0 0zm-1540 -1922c-80,-298 -139,-620 -176,-961l2677 0c265,0 481,-215 481,-480l0 -161 318 0c-13,575 -91,1120 -221,1602l-3079 0zm2982 -3851c190,568 301,1234 316,1929l-316 0 0 -1929zm638 2249l1600 0c-25,578 -184,1122 -446,1602l-1357 0c121,-484 192,-1026 203,-1602l0 0zm-2 -320c-12,-561 -84,-1105 -208,-1601l1361 0c264,484 421,1029 446,1601l-1599 0zm957 -1922l-1255 0c-93,-299 -206,-575 -338,-819l0 -487c656,280 1204,738 1593,1306zm-8480 -3523l6406 0c89,0 160,72 160,160l0 801 -6726 0 0 -801c0,-88 72,-160 160,-160l0 0zm-160 5926l0 -4645 6726 0 0 4645c0,88 -71,160 -160,160l-6406 0c-88,0 -160,-72 -160,-160l0 0zm3567 480c35,339 91,661 167,961l-1363 0c-161,-296 -281,-619 -357,-961l1553 0zm-1003 1281l1260 0c198,631 484,1140 823,1476 -855,-228 -1591,-756 -2083,-1476zm4017 1470c337,-337 617,-845 812,-1470l1249 0c-487,707 -1213,1236 -2061,1470z" data-original="#000000" data-old_color="#000000"/>
     <polygon class="fil0" points="4644,7046 4964,7046 4964,7367 4644,7367 " data-original="#000000" data-old_color="#000000"/>
     <polygon class="fil0" points="5285,7046 5605,7046 5605,7367 5285,7367 " data-original="#000000" data-old_color="#000000"/>
     <polygon class="fil0" points="5925,7046 6246,7046 6246,7367 5925,7367 " data-original="#000000" data-old_color="#000000"/>
    </g>
   </g>
  </g>
 </g>
</svg>
