<?xml version="1.0" encoding="UTF-8"?>
<!DOCTYPE svg PUBLIC "-//W3C//DTD SVG 1.1//EN" "http://www.w3.org/Graphics/SVG/1.1/DTD/svg11.dtd">
<!-- Creator: CorelDRAW X7 -->
<svg xmlns="http://www.w3.org/2000/svg" xml:space="preserve" width="183.503mm" height="26.6719mm" version="1.1" style="shape-rendering:geometricPrecision; text-rendering:geometricPrecision; image-rendering:optimizeQuality; fill-rule:evenodd; clip-rule:evenodd"
viewBox="0 0 3791 551"
 xmlns:xlink="http://www.w3.org/1999/xlink">
 <defs>
  <style type="text/css">
   <![CDATA[
    .fil0 {fill:#FEFEFE;fill-rule:nonzero}
   ]]>
  </style>
 </defs>
 <g id="Layer_x0020_1">
  <metadata id="CorelCorpID_0Corel-Layer"/>
  <path class="fil0" d="M80 0c28,0 50,20 65,61l144 289c9,16 20,24 34,24 18,0 39,-30 61,-91 2,-7 3,-15 3,-21 0,-16 -14,-50 -42,-102 -41,-82 -62,-126 -62,-131l0 -7c2,-15 12,-22 30,-22l48 0c30,0 51,18 64,54 13,22 26,33 39,33 14,0 29,-16 44,-49 12,-25 30,-38 54,-38l50 0c18,0 28,7 30,22l0 4c0,8 -10,33 -32,73 -21,42 -38,75 -49,100 -11,25 -18,41 -20,48l-3 16c0,20 14,53 41,98 9,8 18,13 26,13 18,0 36,-24 55,-72l139 -277c13,-17 28,-25 46,-25l51 0c13,0 23,5 29,16l1 6 0 7c0,3 -4,12 -12,28 -7,17 -19,40 -34,71l-195 395c-13,19 -29,28 -49,28l-62 0c-28,0 -51,-22 -67,-65 -15,-31 -29,-46 -40,-46l-8 0c-15,0 -33,26 -55,77 -13,23 -30,34 -51,34l-63 0c-24,0 -43,-14 -55,-41 -152,-305 -230,-464 -234,-475 -1,-1 -1,-3 -1,-6l0 -7c0,-12 9,-19 28,-22l52 0zm3070 35c0,-10 3,-19 9,-25 6,-7 15,-10 27,-10l455 0c69,0 117,33 143,99 5,16 7,32 7,49l0 5c0,21 -4,40 -11,58 -7,18 -17,34 -30,48 -13,13 -29,23 -49,31 -19,8 -41,11 -65,11l-287 0c-24,0 -36,-13 -36,-40l0 -30c0,-27 12,-41 36,-41l223 0c49,0 77,-4 84,-13 9,-6 13,-15 13,-27 0,-16 -10,-28 -29,-34 -6,-3 -27,-5 -62,-5l-246 0c-37,0 -58,7 -63,21 -4,9 -6,18 -6,27 -1,90 -1,165 -1,225 0,59 0,104 0,135 0,8 -3,16 -9,22 -7,7 -15,10 -26,10l-41 0c-11,0 -19,-3 -26,-9 -6,-6 -10,-15 -10,-26l0 -481zm-38 481c0,10 -3,18 -9,25 -6,7 -14,10 -26,10l-338 0c-82,0 -151,-33 -207,-98 -40,-50 -60,-107 -60,-170l0 -15c0,-82 33,-151 98,-208 50,-40 106,-60 169,-60l338 0c11,0 19,3 26,9 6,6 9,15 9,26l0 41c0,10 -3,18 -9,25 -6,7 -14,10 -26,10l-268 0c-66,0 -105,5 -118,14 -17,5 -38,20 -63,44 -29,36 -43,72 -43,107 0,47 22,89 66,128 29,24 72,36 130,36l296 0c10,0 18,3 25,9 7,6 10,15 10,26l0 41zm-1319 -481c0,-10 3,-19 9,-25 6,-7 15,-10 27,-10l569 0c11,0 20,3 26,9 7,6 10,15 10,26l0 41c0,10 -3,18 -9,25 -6,7 -15,10 -27,10l-569 0c-10,0 -19,-3 -26,-9 -6,-6 -10,-15 -10,-26l0 -41zm0 220c0,-11 3,-19 9,-26 6,-6 15,-9 27,-9l569 0c10,0 19,3 26,9 7,5 10,14 10,26l0 41c0,10 -3,18 -9,25 -6,7 -15,10 -27,10l-569 0c-11,0 -19,-3 -26,-9 -7,-6 -10,-15 -10,-26l0 -41zm0 220c0,-10 3,-19 9,-25 6,-7 15,-10 27,-10l569 0c10,0 19,3 26,9 7,6 10,15 10,26l0 41c0,10 -3,18 -9,25 -6,7 -15,10 -27,10l-569 0c-11,0 -19,-3 -26,-9 -7,-6 -10,-15 -10,-26l0 -41zm-680 0c0,-10 3,-19 9,-25 6,-7 15,-10 26,-10l363 0c54,0 85,-5 93,-14 23,-15 34,-33 34,-56 0,-27 -16,-48 -49,-62 -7,-4 -33,-7 -78,-7l-244 0c-77,0 -127,-35 -151,-107 -3,-15 -5,-29 -5,-43l0 -1c0,-66 30,-112 90,-140 18,-7 37,-10 60,-10l459 0c10,0 18,3 25,9 6,6 10,15 10,26l0 41c0,10 -3,18 -9,25 -6,7 -14,10 -26,10l-396 0c-48,0 -74,5 -79,15 -8,6 -12,14 -12,25 0,20 15,32 45,37 10,2 27,2 52,2l246 0c76,0 131,35 164,105 10,22 15,47 15,74l0 3c0,68 -30,121 -89,157 -26,15 -55,22 -87,22l-431 0c-10,0 -19,-3 -25,-9 -7,-6 -10,-15 -10,-26l0 -41zm-150 -440c0,-10 4,-19 10,-25 6,-7 14,-10 26,-10l40 0c10,0 18,3 25,9 6,6 10,15 10,26l0 481c0,10 -3,18 -9,25 -6,7 -14,10 -26,10l-40 0c-11,0 -19,-3 -26,-9 -6,-6 -10,-15 -10,-26l0 -481z"/>
 </g>
</svg>
