<?xml version="1.0" encoding="UTF-8"?>
<!DOCTYPE svg PUBLIC "-//W3C//DTD SVG 1.1//EN" "http://www.w3.org/Graphics/SVG/1.1/DTD/svg11.dtd">
<!-- Creator: CorelDRAW X7 -->
<svg xmlns="http://www.w3.org/2000/svg" xml:space="preserve" width="83.772mm" height="106.273mm" version="1.1" style="shape-rendering:geometricPrecision; text-rendering:geometricPrecision; image-rendering:optimizeQuality; fill-rule:evenodd; clip-rule:evenodd"
viewBox="0 0 1424 1806"
 xmlns:xlink="http://www.w3.org/1999/xlink">
 <defs>
  <style type="text/css">
   <![CDATA[
    .fil0 {fill:#19D2C0}
   ]]>
  </style>
 </defs>
 <g id="Layer_x0020_1">
  <metadata id="CorelCorpID_0Corel-Layer"/>
  <g id="_1736043905264">
   <circle class="fil0" cx="429" cy="386" r="34" data-original="#846F75" data-old_color="#846f75"/>
   <circle class="fil0" cx="653" cy="386" r="34" data-original="#846F75" data-old_color="#846f75"/>
   <polygon class="fil0" points="674,854 539,1089 407,854 " data-original="#EBE7F2" data-old_color="#ebe7f2"/>
   <path class="fil0" d="M791 1258l-152 0c-9,0 -17,-8 -17,-19l0 -37c0,-7 3,-12 8,-16l76 -47c6,-3 13,-3 19,0l76 47c5,4 8,9 8,16l0 37c0,11 -8,19 -18,19l0 0 0 0z" data-original="#EBE7F2" data-old_color="#ebe7f2"/>
   <path class="fil0" d="M499 551c23,-24 60,-24 83,0 5,4 11,6 16,6 6,0 12,-2 16,-6 9,-9 9,-23 0,-32 -40,-41 -106,-41 -147,0 -9,9 -9,23 0,32 9,8 23,8 32,0l0 0z" data-original="#000000" data-old_color="#000000"/>
   <path class="fil0" d="M1356 519c-8,0 -16,1 -23,4 -2,-38 -33,-67 -72,-67 -9,0 -19,1 -27,5l0 -1c0,-41 -34,-76 -76,-76 -31,0 -58,18 -70,45 -12,-6 -25,-10 -39,-10 -42,0 -76,34 -76,76l0 328c-2,-1 -4,-3 -5,-5 -4,-4 -8,-8 -14,-13 -17,-17 -45,-40 -86,-34 -17,2 -31,9 -42,19 0,0 0,0 0,0 -2,2 -5,5 -7,8l-88 0 29 -51c7,-11 3,-24 -8,-31 -11,-6 -24,-2 -31,9l-182 319 -130 -230c0,-3 -2,-6 -4,-8l-45 -81c-6,-11 -20,-15 -31,-9 -11,7 -15,20 -8,31l28 51 -184 0c-91,0 -165,74 -165,165l0 702c0,63 52,115 115,115 47,0 87,-28 105,-68 83,60 197,94 318,94 1,0 1,0 1,0 0,0 0,0 0,0 1,0 1,0 1,0 136,0 263,-42 348,-115 5,-4 8,-11 8,-18l0 -499 78 0c12,0 22,-10 22,-22 0,-12 -10,-22 -22,-22l-101 0c-12,0 -22,10 -22,22l0 511c-73,59 -177,94 -290,98l0 -666 144 -252 104 0c1,3 1,5 2,8 5,20 17,36 26,49 38,52 80,105 127,162 6,6 11,13 17,20 8,10 16,21 25,30 27,39 69,61 113,61l159 0c81,0 146,-74 146,-164l0 -422c0,-37 -31,-68 -68,-68l0 0 0 0zm-1191 324l209 0 142 253 0 665c-111,-5 -214,-39 -286,-98l0 -511c0,-12 -10,-22 -22,-22 -13,0 -23,10 -23,22l0 349 -140 0 0 -538c0,-66 54,-120 120,-120l0 0zm-50 892c-38,0 -70,-31 -70,-70l0 -119 140 0 0 119c0,39 -31,70 -70,70l0 0 0 0zm1264 -726c0,65 -45,119 -101,119l-159 0c-30,0 -58,-16 -78,-43 0,0 0,-1 0,-1 -9,-10 -17,-20 -25,-31 -6,-6 -12,-13 -17,-20 -47,-56 -88,-108 -125,-159 -9,-11 -17,-23 -20,-34 -3,-12 1,-16 3,-17 4,-4 10,-6 18,-7 16,-2 31,4 48,21 4,5 9,9 13,13 17,17 29,29 46,41 7,4 16,5 24,1 7,-4 12,-11 12,-19l0 -378c0,-17 14,-31 31,-31 18,0 32,14 32,31l0 230c0,13 10,23 22,23 13,0 23,-10 23,-23l0 -230 0 -35c0,-17 14,-31 32,-31 17,0 31,14 31,31l0 68 0 197c0,13 10,23 23,23 12,0 22,-10 22,-23l0 -197c0,-15 12,-28 27,-28 15,0 27,13 27,28l0 59 0 138c0,13 10,23 23,23 12,0 22,-10 22,-23l0 -138c0,-13 11,-23 23,-23 13,0 23,10 23,23l0 422 0 0 0 0z" data-original="#000000" data-old_color="#000000"/>
   <path class="fil0" d="M359 314l360 0 0 88c0,22 18,41 40,41 10,0 21,-2 30,-6 -31,127 -131,221 -249,221 -142,0 -258,-137 -258,-305 0,-13 -10,-23 -23,-23 -12,0 -22,10 -22,23 0,193 136,350 303,350 165,0 300,-152 304,-342 0,-1 0,-2 0,-3l0 -219c0,-77 -62,-139 -138,-139l-385 0c-77,0 -139,62 -139,138 -1,46 17,89 49,122 34,35 80,54 128,54l0 0zm-38 -269l385 0c51,0 93,42 93,94l0 214c0,1 0,4 0,6 0,20 -16,36 -35,38l0 -87c0,-23 -19,-40 -41,-40l-364 0c-36,0 -70,-15 -96,-41 -24,-25 -37,-57 -36,-90 0,-52 42,-94 94,-94l0 0 0 0z" data-original="#000000" data-old_color="#000000"/>
  </g>
 </g>
</svg>
