<?xml version="1.0" encoding="UTF-8"?>
<!DOCTYPE svg PUBLIC "-//W3C//DTD SVG 1.1//EN" "http://www.w3.org/Graphics/SVG/1.1/DTD/svg11.dtd">
<!-- Creator: CorelDRAW X7 -->
<svg xmlns="http://www.w3.org/2000/svg" xml:space="preserve" width="135.466mm" height="113.632mm" version="1.1" style="shape-rendering:geometricPrecision; text-rendering:geometricPrecision; image-rendering:optimizeQuality; fill-rule:evenodd; clip-rule:evenodd"
viewBox="0 0 8591 7207"
 xmlns:xlink="http://www.w3.org/1999/xlink">
 <defs>
  <style type="text/css">
   <![CDATA[
    .fil0 {fill:#19D2C0}
   ]]>
  </style>
 </defs>
 <g id="Layer_x0020_1">
  <metadata id="CorelCorpID_0Corel-Layer"/>
  <g id="_1701016817072">
   <g>
    <g>
     <g>
      <path class="fil0" d="M8384 2791c-62,-37 -141,-30 -195,19 -143,129 -288,248 -439,359 33,-109 62,-215 86,-320 253,-144 456,-381 589,-689 122,-283 180,-618 164,-943 -4,-73 -54,-134 -126,-151 -71,-17 -143,14 -180,78 -97,169 -200,329 -310,483 0,-6 0,-11 0,-16 -2,-128 -7,-251 -18,-370 0,-3 0,-5 0,-8 -29,-384 -99,-768 -210,-1143 -20,-66 -90,-105 -157,-85 -66,20 -105,90 -85,157 71,238 124,481 160,724 -138,-133 -280,-257 -430,-375 -56,-44 -133,-47 -192,-8 -59,39 -86,111 -68,179 151,556 404,1030 732,1376 -8,105 -20,214 -37,326 -92,-162 -190,-317 -296,-467 -41,-57 -113,-83 -180,-63 -68,20 -115,80 -118,150 -16,392 23,963 295,1494 -38,96 -81,194 -129,294 -41,-181 -90,-356 -148,-530 -22,-66 -84,-111 -154,-111 -1,0 -1,0 -2,0 -69,0 -131,43 -154,108 -180,510 -233,1042 -150,1507 -65,82 -135,164 -210,246 15,-185 19,-368 14,-552 -2,-70 -48,-131 -115,-152 -67,-21 -139,3 -181,59 -323,438 -532,936 -594,1409 -336,252 -513,320 -700,390 -155,59 -312,118 -550,277 -239,-159 -396,-218 -550,-277 -188,-70 -365,-138 -701,-390 -62,-473 -271,-971 -594,-1409 -42,-56 -114,-80 -181,-59 -67,21 -113,82 -115,152 -5,184 0,367 14,552 -75,-82 -145,-164 -210,-246 83,-465 31,-997 -150,-1507 -23,-65 -85,-108 -154,-108 -1,0 -1,0 -1,0 -70,0 -132,45 -155,111 -58,174 -107,349 -148,530 -47,-100 -90,-198 -128,-294 272,-531 311,-1102 294,-1494 -3,-70 -50,-130 -117,-150 -68,-20 -140,6 -181,63 -106,150 -204,305 -296,467 -16,-112 -29,-221 -37,-326 328,-346 581,-820 732,-1376 19,-68 -9,-140 -68,-179 -59,-39 -136,-36 -192,8 -149,118 -291,242 -429,375 36,-243 89,-486 159,-724 20,-67 -18,-137 -85,-157 -67,-19 -137,19 -157,85 -110,375 -181,759 -210,1143 0,3 0,5 0,8 -10,119 -16,242 -17,370 0,5 0,10 0,16 -111,-154 -213,-314 -311,-483 -36,-64 -109,-95 -180,-78 -71,17 -122,78 -125,151 -17,325 41,660 163,943 133,308 336,545 589,689 25,105 53,211 86,320 -150,-111 -296,-230 -439,-359 -54,-49 -132,-56 -195,-19 -62,38 -91,111 -73,181 146,561 568,1173 1191,1312 54,92 112,185 174,279 -175,-62 -349,-133 -523,-214 -66,-31 -143,-15 -192,40 -48,54 -55,132 -17,194 288,470 831,912 1433,912 30,0 59,-1 89,-4 167,156 356,309 563,454 392,301 601,380 805,457 126,48 249,94 419,199 -130,100 -281,225 -460,386 -52,46 -57,126 -10,178 25,27 59,42 94,42 30,0 60,-11 84,-32 207,-186 373,-322 512,-424 138,102 304,238 512,424 24,21 54,32 84,32 34,0 69,-15 94,-42 46,-52 42,-132 -10,-178 -179,-161 -330,-286 -461,-386 171,-105 294,-151 420,-199 203,-77 413,-156 804,-457 208,-145 397,-298 563,-454 30,3 60,4 89,4 603,0 1145,-442 1433,-912 38,-62 31,-140 -17,-194 -48,-55 -125,-71 -191,-40 -175,81 -348,152 -524,214 63,-94 121,-187 174,-279 623,-139 1046,-751 1191,-1312 19,-70 -11,-143 -73,-181zm-472 -338c4,-23 8,-45 11,-68 2,-14 3,-27 5,-40 3,-21 6,-42 8,-62 2,-14 3,-28 5,-42 2,-20 4,-39 6,-59 2,-14 3,-28 4,-42 2,-19 4,-38 5,-57 1,-8 2,-15 2,-23 132,-161 253,-328 367,-502 -41,343 -174,691 -417,925 2,-10 3,-20 4,-30zm-7646 -895c114,174 235,341 367,502 1,8 2,15 2,23 2,19 3,38 5,57 1,14 3,28 4,42 2,20 4,39 6,59 2,14 4,28 5,42 3,20 5,41 8,62 2,13 4,26 6,40 3,23 6,45 10,68 2,10 3,20 4,30 -243,-234 -376,-582 -417,-925zm999 745c-14,304 -70,593 -165,848 -3,-10 -6,-19 -9,-29 -6,-17 -11,-35 -16,-52 -4,-13 -8,-27 -12,-40 -5,-17 -10,-34 -14,-51 -4,-13 -8,-27 -11,-40 -5,-16 -9,-33 -13,-49 -4,-14 -7,-27 -10,-40 -4,-17 -8,-33 -12,-49 -2,-7 -3,-13 -5,-20 83,-167 171,-326 267,-478zm-394 -704c0,-15 1,-29 1,-43 0,-18 1,-36 1,-54 1,-15 1,-29 2,-43 1,-18 1,-35 2,-53 1,-14 2,-28 3,-42 1,-17 2,-34 3,-51 1,-8 1,-15 2,-22 130,-140 263,-270 401,-391 -107,298 -247,563 -415,786 0,-11 0,-21 0,-32 0,-18 0,-37 0,-55zm-385 1614c160,129 324,248 495,360 3,7 6,14 9,22 7,17 14,34 21,51 5,13 10,26 16,39 7,18 15,36 23,53 5,13 11,26 16,39 9,18 17,37 26,55 5,12 11,24 17,37 9,20 19,40 29,61 4,8 8,17 12,26 -297,-148 -525,-435 -664,-743zm1169 404c74,290 103,581 86,853 -6,-8 -11,-16 -17,-25 -10,-14 -20,-29 -30,-44 -8,-12 -15,-24 -23,-35 -9,-15 -19,-29 -28,-44 -7,-12 -15,-23 -22,-35 -9,-15 -18,-29 -27,-43 -7,-12 -14,-24 -21,-36 -8,-14 -17,-28 -25,-43 -4,-6 -7,-11 -10,-17 31,-184 69,-359 117,-531zm-482 1092c190,77 381,143 578,200 4,6 9,12 14,18 12,14 23,29 35,44 9,11 18,21 27,32 13,15 25,30 38,45 9,10 18,21 27,32 13,15 27,30 40,46 9,10 18,20 28,30 14,17 30,33 45,49 7,8 13,15 20,23 -328,-56 -630,-265 -852,-519zm1550 824c-14,-11 -28,-23 -42,-34 -12,-9 -22,-18 -33,-27 -14,-12 -27,-23 -41,-34 -11,-10 -21,-19 -32,-28 -13,-12 -26,-23 -39,-34 -10,-9 -20,-19 -31,-28 -12,-12 -25,-23 -37,-35 -5,-4 -10,-9 -15,-14 -25,-185 -40,-365 -46,-545 158,258 273,530 340,799 -8,-7 -16,-13 -24,-20zm3416 -234c-5,5 -10,10 -16,15 -12,11 -24,22 -37,34 -10,9 -21,19 -31,28 -13,11 -26,23 -39,34 -10,9 -21,18 -32,28 -13,11 -27,22 -40,34 -11,9 -22,18 -33,27 -14,12 -28,23 -43,34 -8,7 -16,13 -24,20 67,-269 183,-541 340,-799 -5,180 -20,360 -45,545zm798 -1682c47,172 86,347 117,531 -4,6 -7,11 -10,17 -9,15 -17,29 -26,43 -7,12 -14,24 -21,36 -9,14 -18,28 -26,43 -8,12 -15,23 -23,35 -9,15 -18,29 -28,44 -7,11 -15,23 -23,35 -10,15 -20,30 -30,44 -5,9 -11,17 -17,25 -17,-272 13,-563 87,-853zm482 1092c-223,254 -524,463 -853,519 7,-8 14,-15 21,-23 15,-16 30,-32 45,-49 9,-10 18,-20 27,-31 14,-15 27,-30 40,-45 10,-11 19,-22 28,-32 12,-15 25,-30 37,-45 9,-10 18,-21 27,-32 12,-15 24,-30 36,-44 4,-6 9,-12 14,-18 196,-57 388,-123 578,-200zm-113 -3809c138,121 270,251 400,391 1,7 2,14 2,22 1,17 3,34 4,51 1,14 1,28 2,42 1,18 2,35 3,53 0,14 1,28 1,43 1,18 1,36 2,54 0,14 0,28 0,43 0,18 0,37 0,55 0,11 1,21 0,32 -167,-223 -307,-488 -414,-786zm21 1403c95,152 183,311 266,478 -1,7 -3,13 -5,20 -3,16 -7,32 -11,49 -3,13 -7,26 -10,40 -4,16 -9,32 -13,49 -4,13 -7,27 -11,41 -5,16 -10,33 -14,49 -4,14 -8,28 -12,41 -5,17 -11,34 -16,51 -3,10 -6,20 -9,30 -95,-255 -152,-544 -165,-848zm114 1653c4,-9 8,-18 13,-26 9,-21 19,-41 29,-61 6,-13 11,-25 17,-37 8,-18 17,-37 25,-55 6,-13 11,-26 17,-39 7,-17 15,-35 22,-53 6,-13 11,-26 17,-39 7,-17 14,-34 20,-51 3,-8 6,-15 9,-22 172,-112 336,-231 496,-360 -140,308 -367,595 -665,743z" data-original="#000000" data-old_color="#000000"/>
     </g>
    </g>
    <g>
     <g>
      <path class="fil0" d="M4756 1202c-107,-109 -256,-163 -442,-163 -81,0 -157,12 -226,35 -68,24 -131,57 -185,98 -60,45 -107,94 -143,148 -85,128 -114,223 -139,307 -3,7 -5,15 -8,23l-434 -80c27,-127 69,-242 124,-341 39,-71 84,-137 135,-194 46,-53 40,-132 -12,-178 -53,-46 -132,-41 -178,12 -62,71 -118,151 -166,238 -78,142 -134,307 -165,489 -17,97 49,191 146,209l565 104c11,2 22,3 33,3 76,0 144,-48 170,-119 12,-33 22,-63 31,-93 22,-74 44,-143 108,-240 20,-31 48,-59 85,-87 33,-25 72,-45 115,-60 43,-15 91,-22 144,-22 116,0 205,29 263,88 58,59 88,153 88,281 0,81 -10,160 -31,233 -21,74 -53,149 -95,222 -44,76 -100,156 -167,236 -69,83 -151,172 -242,263l-1111 1114c-60,58 -104,124 -130,197 -25,68 -37,133 -37,195l0 117c0,142 116,258 258,258l1168 0c69,0 126,-56 126,-126 0,-69 -57,-126 -126,-126l-1168 0c-3,0 -6,-3 -6,-6l0 -117c0,-32 7,-69 22,-109 13,-37 36,-71 69,-102 0,-1 1,-2 1,-2l1112 -1115c97,-96 184,-191 258,-280 76,-91 140,-182 192,-271 52,-91 92,-185 119,-280 26,-95 40,-197 40,-301 0,-196 -54,-350 -161,-458z" data-original="#000000" data-old_color="#000000"/>
     </g>
    </g>
    <g>
     <g>
      <path class="fil0" d="M5536 3555l-1115 0 478 -489c101,-102 198,-206 289,-307 95,-105 179,-215 251,-327 74,-116 133,-239 177,-367 44,-131 67,-275 67,-428 0,-179 -33,-346 -97,-496 -65,-151 -158,-282 -276,-390 -117,-106 -259,-190 -421,-248 -161,-58 -341,-88 -534,-88 -182,0 -356,26 -516,75 -14,5 -29,10 -43,15 -66,23 -101,94 -78,160 23,66 95,101 160,78 12,-4 24,-8 36,-12 136,-42 284,-64 441,-64 164,0 315,25 448,73 132,47 245,114 337,198 92,83 164,184 214,302 51,119 76,252 76,397 0,125 -18,242 -53,347 -37,109 -87,213 -150,311 -65,101 -141,200 -226,296 -89,98 -183,199 -282,299l-671 686c-38,39 -49,97 -28,148 22,51 71,83 126,83l1341 0 0 436 -623 0c-70,0 -126,57 -126,126 0,70 56,126 126,126l672 0c112,0 203,-91 203,-203l0 -534c0,-112 -91,-203 -203,-203z" data-original="#000000" data-old_color="#000000"/>
     </g>
    </g>
   </g>
  </g>
 </g>
</svg>
